<svg width="24" height="24" viewBox="0 0 24 24" fill="none" xmlns="http://www.w3.org/2000/svg">
<path d="M19.2812 18.9698C19.3509 19.0395 19.4062 19.1222 19.4439 19.2132C19.4816 19.3043 19.501 19.4019 19.501 19.5004C19.501 19.599 19.4816 19.6965 19.4439 19.7876C19.4062 19.8786 19.3509 19.9614 19.2812 20.031C19.2115 20.1007 19.1288 20.156 19.0378 20.1937C18.9467 20.2314 18.8491 20.2508 18.7506 20.2508C18.652 20.2508 18.5545 20.2314 18.4634 20.1937C18.3724 20.156 18.2896 20.1007 18.22 20.031L10.72 12.531C10.6502 12.4614 10.5949 12.3787 10.5572 12.2876C10.5194 12.1966 10.5 12.099 10.5 12.0004C10.5 11.9019 10.5194 11.8043 10.5572 11.7132C10.5949 11.6222 10.6502 11.5394 10.72 11.4698L18.22 3.96979C18.3607 3.82906 18.5516 3.75 18.7506 3.75C18.9496 3.75 19.1405 3.82906 19.2812 3.96979C19.4219 4.11052 19.501 4.30139 19.501 4.50042C19.501 4.69944 19.4219 4.89031 19.2812 5.03104L12.3109 12.0004L19.2812 18.9698ZM4.8109 12.0004L11.7812 5.03104C11.9219 4.89031 12.001 4.69944 12.001 4.50042C12.001 4.30139 11.9219 4.11052 11.7812 3.96979C11.6405 3.82906 11.4496 3.75 11.2506 3.75C11.0516 3.75 10.8607 3.82906 10.72 3.96979L3.21996 11.4698C3.15023 11.5394 3.09491 11.6222 3.05717 11.7132C3.01943 11.8043 3 11.9019 3 12.0004C3 12.099 3.01943 12.1966 3.05717 12.2876C3.09491 12.3787 3.15023 12.4614 3.21996 12.531L10.72 20.031C10.7896 20.1007 10.8724 20.156 10.9634 20.1937C11.0545 20.2314 11.152 20.2508 11.2506 20.2508C11.3491 20.2508 11.4467 20.2314 11.5378 20.1937C11.6288 20.156 11.7115 20.1007 11.7812 20.031C11.8509 19.9614 11.9062 19.8786 11.9439 19.7876C11.9816 19.6965 12.001 19.599 12.001 19.5004C12.001 19.4019 11.9816 19.3043 11.9439 19.2132C11.9062 19.1222 11.8509 19.0395 11.7812 18.9698L4.8109 12.0004Z" fill="#FFF2E9"/>
</svg>
